<mxfile host="65bd71144e" scale="4" border="20" disableSvgWarning="true">
    <diagram id="XoFYVbQiYouHSBdRtk4J" name="Page-1">
        <mxGraphModel dx="824" dy="383" grid="1" gridSize="10" guides="1" tooltips="1" connect="1" arrows="1" fold="1" page="1" pageScale="1" pageWidth="583" pageHeight="413" math="0" shadow="0">
            <root>
                <mxCell id="0"/>
                <mxCell id="1" parent="0"/>
                <mxCell id="2" value="Business" style="shape=umlActor;verticalLabelPosition=bottom;verticalAlign=top;html=1;outlineConnect=0;sketch=1;labelBackgroundColor=none;" parent="1" vertex="1">
                    <mxGeometry x="137" y="177" width="30" height="60" as="geometry"/>
                </mxCell>
                <mxCell id="3" value="Developers" style="shape=umlActor;verticalLabelPosition=bottom;verticalAlign=top;html=1;outlineConnect=0;sketch=1;" parent="1" vertex="1">
                    <mxGeometry x="277" y="177" width="30" height="60" as="geometry"/>
                </mxCell>
                <mxCell id="4" value="Operations" style="shape=umlActor;verticalLabelPosition=bottom;verticalAlign=top;html=1;outlineConnect=0;sketch=1;" parent="1" vertex="1">
                    <mxGeometry x="433.5" y="177" width="30" height="60" as="geometry"/>
                </mxCell>
                <mxCell id="12" value="" style="endArrow=classic;html=1;sketch=1;curved=1;" parent="1" edge="1">
                    <mxGeometry width="50" height="50" relative="1" as="geometry">
                        <mxPoint x="168.5" y="182.07" as="sourcePoint"/>
                        <mxPoint x="271.5" y="182" as="targetPoint"/>
                        <Array as="points">
                            <mxPoint x="228.5" y="156.07"/>
                        </Array>
                    </mxGeometry>
                </mxCell>
                <mxCell id="15" value="" style="endArrow=classic;html=1;sketch=1;curved=1;" parent="1" edge="1">
                    <mxGeometry width="50" height="50" relative="1" as="geometry">
                        <mxPoint x="314" y="181.07" as="sourcePoint"/>
                        <mxPoint x="427" y="181.07" as="targetPoint"/>
                        <Array as="points">
                            <mxPoint x="370" y="151"/>
                        </Array>
                    </mxGeometry>
                </mxCell>
                <mxCell id="17" value="" style="ellipse;shape=cloud;whiteSpace=wrap;html=1;labelBackgroundColor=none;sketch=1;" parent="1" vertex="1">
                    <mxGeometry x="204.5" y="4.85" width="193" height="113.71" as="geometry"/>
                </mxCell>
                <mxCell id="19" value="" style="ellipse;shape=cloud;whiteSpace=wrap;html=1;" parent="1" vertex="1">
                    <mxGeometry x="140" y="156.07" width="10" height="12" as="geometry"/>
                </mxCell>
                <mxCell id="20" value="" style="ellipse;shape=cloud;whiteSpace=wrap;html=1;" parent="1" vertex="1">
                    <mxGeometry x="143" y="133.42000000000002" width="18" height="12.42" as="geometry"/>
                </mxCell>
                <mxCell id="21" value="" style="ellipse;shape=cloud;whiteSpace=wrap;html=1;" parent="1" vertex="1">
                    <mxGeometry x="287" y="160.07" width="10" height="12" as="geometry"/>
                </mxCell>
                <mxCell id="22" value="" style="ellipse;shape=cloud;whiteSpace=wrap;html=1;" parent="1" vertex="1">
                    <mxGeometry x="292" y="143.71" width="18" height="12.42" as="geometry"/>
                </mxCell>
                <mxCell id="23" value="" style="ellipse;shape=cloud;whiteSpace=wrap;html=1;" parent="1" vertex="1">
                    <mxGeometry x="448" y="160.06999999999996" width="10" height="12" as="geometry"/>
                </mxCell>
                <mxCell id="25" value="" style="endArrow=classic;html=1;sketch=1;curved=1;" edge="1" parent="1">
                    <mxGeometry width="50" height="50" relative="1" as="geometry">
                        <mxPoint x="270" y="220" as="sourcePoint"/>
                        <mxPoint x="170" y="217" as="targetPoint"/>
                        <Array as="points">
                            <mxPoint x="217" y="237"/>
                        </Array>
                    </mxGeometry>
                </mxCell>
                <mxCell id="26" value="" style="endArrow=classic;html=1;sketch=1;curved=1;" edge="1" parent="1">
                    <mxGeometry width="50" height="50" relative="1" as="geometry">
                        <mxPoint x="419.9999999999998" y="230" as="sourcePoint"/>
                        <mxPoint x="320" y="227" as="targetPoint"/>
                        <Array as="points">
                            <mxPoint x="367" y="247"/>
                        </Array>
                    </mxGeometry>
                </mxCell>
                <mxCell id="27" value="Flow" style="text;html=1;strokeColor=none;fillColor=none;align=center;verticalAlign=middle;whiteSpace=wrap;rounded=0;rotation=15;" vertex="1" parent="1">
                    <mxGeometry x="200" y="143.71" width="40" height="20" as="geometry"/>
                </mxCell>
                <mxCell id="28" value="Flow" style="text;html=1;strokeColor=none;fillColor=none;align=center;verticalAlign=middle;whiteSpace=wrap;rounded=0;rotation=-15;" vertex="1" parent="1">
                    <mxGeometry x="350" y="143.70999999999998" width="40" height="20" as="geometry"/>
                </mxCell>
                <mxCell id="29" value="Feedback" style="text;html=1;strokeColor=none;fillColor=none;align=center;verticalAlign=middle;whiteSpace=wrap;rounded=0;rotation=15;" vertex="1" parent="1">
                    <mxGeometry x="190" y="230" width="60" height="20" as="geometry"/>
                </mxCell>
                <mxCell id="30" value="Feedback" style="text;html=1;strokeColor=none;fillColor=none;align=center;verticalAlign=middle;whiteSpace=wrap;rounded=0;rotation=15;" vertex="1" parent="1">
                    <mxGeometry x="340" y="217" width="60" height="20" as="geometry"/>
                </mxCell>
                <mxCell id="32" value="Performance" style="text;html=1;strokeColor=none;fillColor=none;align=center;verticalAlign=middle;whiteSpace=wrap;rounded=0;rotation=10;" vertex="1" parent="1">
                    <mxGeometry x="280" y="33.71" width="80" height="20" as="geometry"/>
                </mxCell>
                <mxCell id="33" value="Money" style="text;html=1;strokeColor=none;fillColor=none;align=center;verticalAlign=middle;whiteSpace=wrap;rounded=0;rotation=-10;" vertex="1" parent="1">
                    <mxGeometry x="240" y="51.71" width="40" height="20" as="geometry"/>
                </mxCell>
                <mxCell id="35" value="Availability" style="text;html=1;strokeColor=none;fillColor=none;align=center;verticalAlign=middle;whiteSpace=wrap;rounded=0;rotation=15;" vertex="1" parent="1">
                    <mxGeometry x="283.29" y="69.50999999999999" width="57" height="20" as="geometry"/>
                </mxCell>
                <mxCell id="37" value="" style="ellipse;shape=cloud;whiteSpace=wrap;html=1;" vertex="1" parent="1">
                    <mxGeometry x="280" y="120" width="20" height="18" as="geometry"/>
                </mxCell>
                <mxCell id="39" value="" style="ellipse;shape=cloud;whiteSpace=wrap;html=1;" vertex="1" parent="1">
                    <mxGeometry x="161" y="111.28999999999999" width="21" height="12.42" as="geometry"/>
                </mxCell>
                <mxCell id="40" value="" style="ellipse;shape=cloud;whiteSpace=wrap;html=1;" vertex="1" parent="1">
                    <mxGeometry x="190" y="95.71" width="21" height="15.58" as="geometry"/>
                </mxCell>
                <mxCell id="42" value="" style="ellipse;shape=cloud;whiteSpace=wrap;html=1;" vertex="1" parent="1">
                    <mxGeometry x="438" y="133.42" width="21" height="12.42" as="geometry"/>
                </mxCell>
                <mxCell id="43" value="" style="ellipse;shape=cloud;whiteSpace=wrap;html=1;" vertex="1" parent="1">
                    <mxGeometry x="427" y="111.29" width="21" height="12.42" as="geometry"/>
                </mxCell>
                <mxCell id="44" value="" style="ellipse;shape=cloud;whiteSpace=wrap;html=1;" vertex="1" parent="1">
                    <mxGeometry x="403" y="89.51" width="21" height="15.58" as="geometry"/>
                </mxCell>
            </root>
        </mxGraphModel>
    </diagram>
</mxfile>